<?xml version="1.0" encoding="utf-8"?>
<!-- Generator: Adobe Illustrator 16.0.0, SVG Export Plug-In . SVG Version: 6.00 Build 0)  -->
<!DOCTYPE svg PUBLIC "-//W3C//DTD SVG 1.1//EN" "http://www.w3.org/Graphics/SVG/1.1/DTD/svg11.dtd">
<svg version="1.1" id="Layer_1" xmlns="http://www.w3.org/2000/svg" xmlns:xlink="http://www.w3.org/1999/xlink" x="0px" y="0px"
	 width="500px" height="500px" viewBox="0 0 500 500" enable-background="new 0 0 500 500" xml:space="preserve">
<g>
	<path fill-rule="evenodd" clip-rule="evenodd" fill="#3C5B9A" d="M503.188,250.907C503.188,388.476,390.766,500,252.094,500
		C113.416,500,1,388.476,1,250.907C1,113.334,113.416,1.813,252.094,1.813C390.766,1.813,503.188,113.334,503.188,250.907z"/>
	<path fill-rule="evenodd" clip-rule="evenodd" fill="#FEFEFE" d="M212.747,326.084c0-23.312-0.091-46.622,0.084-69.933
		c0.032-3.929-1.088-5.158-5.05-4.997c-7.322,0.294-14.665-0.032-21.997,0.137c-2.968,0.074-4.062-0.742-4.029-3.86
		c0.148-14.544,0.133-29.097,0.016-43.645c-0.027-2.797,0.822-3.719,3.674-3.655c7.497,0.17,15.009-0.209,22.492,0.159
		c4.336,0.211,5.235-1.317,5.145-5.31c-0.262-11.07-0.262-22.155-0.017-33.226c0.298-13.521,3.956-26.144,12.074-37.138
		c10.273-13.922,24.879-20.287,41.729-21.033c17.305-0.763,34.656-0.34,51.982-0.524c2.416-0.027,3.137,0.829,3.127,3.159
		c-0.08,14.71-0.094,29.426,0.01,44.138c0.021,2.617-0.838,3.418-3.428,3.376c-8.332-0.128-16.668-0.066-24.996-0.043
		c-11.092,0.035-17.73,5.694-18.426,16.586c-0.557,8.731-0.15,17.517-0.355,26.274c-0.074,3.12,1.795,2.906,3.875,2.903
		c12.664-0.019,25.332,0.125,37.994-0.09c3.717-0.063,4.943,0.785,4.52,4.667c-1.594,14.617-2.963,29.262-4.227,43.916
		c-0.287,3.307-1.809,3.937-4.803,3.888c-9.99-0.153-19.992-0.105-29.988-0.043c-7.182,0.043-6.484-1.044-6.484,6.221
		c-0.033,45.629-0.096,91.259,0.102,136.887c0.02,4.818-1.221,6.014-6.027,5.929c-17.16-0.313-34.331-0.329-51.492,0.009
		c-4.836,0.096-5.632-1.533-5.594-5.813C212.84,372.043,212.747,349.065,212.747,326.084z"/>
</g>
</svg>
