<?xml version="1.0" encoding="utf-8"?>
<!-- Generator: Adobe Illustrator 16.0.0, SVG Export Plug-In . SVG Version: 6.00 Build 0)  -->
<!DOCTYPE svg PUBLIC "-//W3C//DTD SVG 1.1//EN" "http://www.w3.org/Graphics/SVG/1.1/DTD/svg11.dtd">
<svg version="1.1" id="Layer_2" xmlns="http://www.w3.org/2000/svg" xmlns:xlink="http://www.w3.org/1999/xlink" x="0px" y="0px"
	 width="113.39px" height="113.391px" viewBox="0 0 113.39 113.391" enable-background="new 0 0 113.39 113.391"
	 xml:space="preserve">
<ellipse fill="#F74514" cx="56.479" cy="56.695" rx="56.479" ry="56.695"/>
<g id="Layer_1">
	<rect x="-1.43" y="-4.471" display="none" fill="#F74514" width="114.862" height="122.333"/>
	<path fill="#FFFFFF" d="M27.049,94.662c-0.269-0.189-0.354-0.57-0.168-0.863c0.185-0.276,0.554-0.362,0.84-0.173
		c0.167,0.121,0.353,0.241,0.554,0.362c1.377,0.864,2.671,1.295,3.729,1.295c0.958,0,1.748-0.379,2.235-1.122l0,0
		c0.034-0.052,0.067-0.086,0.067-0.121c0.135-0.241,0.252-0.483,0.319-0.725c0.135-0.5,0.118-1.019-0.083-1.485
		c-0.202-0.5-0.621-0.967-1.26-1.364l0,0c-0.419-0.259-0.958-0.5-1.596-0.688c-1.629-0.468-2.822-1.142-3.478-2.021
		c-0.705-0.984-0.756-2.159,0-3.592c0.504-0.949,1.528-1.536,2.839-1.641c1.126-0.085,2.487,0.191,3.864,0.916
		c0.303,0.154,0.421,0.534,0.269,0.828c-0.151,0.312-0.52,0.431-0.806,0.276c-1.177-0.622-2.301-0.847-3.226-0.777
		c-0.891,0.069-1.579,0.432-1.866,1.001c-0.503,0.95-0.503,1.693-0.083,2.263c0.471,0.656,1.462,1.175,2.822,1.572
		c0.739,0.207,1.362,0.5,1.882,0.829l0,0c0.856,0.534,1.428,1.207,1.73,1.933c0.319,0.742,0.354,1.554,0.135,2.313
		c-0.101,0.346-0.252,0.708-0.454,1.036c-0.051,0.069-0.083,0.139-0.1,0.173l0,0c-0.723,1.105-1.865,1.657-3.243,1.657
		c-1.277,0-2.772-0.482-4.351-1.468C27.469,94.937,27.268,94.817,27.049,94.662z"/>
	<path fill="#FFFFFF" d="M37.784,83.111c0-0.327,0.27-0.588,0.604-0.588c0.336,0,0.605,0.261,0.605,0.588V95.94
		c0,0.328-0.269,0.587-0.605,0.587c-0.335,0-0.604-0.259-0.604-0.587V83.111z"/>
	<path fill="#FFFFFF" d="M39.027,91.105c-0.218,0.259-0.588,0.311-0.857,0.086c-0.252-0.225-0.302-0.604-0.083-0.881
		c0.924-1.155,1.964-1.864,2.99-2.175c0.739-0.225,1.461-0.242,2.083-0.069c0.655,0.19,1.226,0.569,1.629,1.158
		c0.386,0.553,0.604,1.259,0.604,2.105v4.594c0,0.345-0.269,0.62-0.604,0.62c-0.335,0-0.604-0.275-0.604-0.62V91.33
		c0-0.588-0.135-1.054-0.369-1.398c-0.235-0.328-0.555-0.553-0.958-0.674c-0.42-0.12-0.907-0.103-1.428,0.052
		C40.623,89.569,39.783,90.155,39.027,91.105z"/>
	<path fill="#FFFFFF" d="M51.324,87.945c1.16,0,2.201,0.483,2.958,1.261l0,0c0.756,0.777,1.226,1.848,1.226,3.038
		c0,1.192-0.47,2.263-1.226,3.039c-0.757,0.778-1.798,1.261-2.958,1.261c-1.159,0-2.2-0.482-2.956-1.261l0,0
		c-0.756-0.776-1.227-1.847-1.227-3.039c0-1.19,0.471-2.261,1.227-3.038l0,0C49.124,88.428,50.182,87.945,51.324,87.945
		L51.324,87.945z M53.44,90.069c-0.537-0.553-1.293-0.898-2.117-0.898c-0.823,0-1.562,0.346-2.117,0.898l0,0
		c-0.537,0.552-0.874,1.33-0.874,2.175c0,0.848,0.336,1.623,0.874,2.176l0,0c0.538,0.554,1.293,0.898,2.117,0.898
		c0.824,0,1.563-0.345,2.117-0.898c0.538-0.553,0.874-1.328,0.874-2.176C54.314,91.399,53.979,90.621,53.44,90.069z"/>
	<path fill="#FFFFFF" d="M57.22,88.566c0-0.346,0.27-0.621,0.605-0.621s0.605,0.275,0.605,0.621v0.778
		c0.049-0.052,0.083-0.104,0.134-0.139l0,0c0.756-0.777,1.798-1.261,2.956-1.261c1.16,0,2.201,0.483,2.957,1.261l0,0
		c0.757,0.777,1.228,1.848,1.228,3.038c0,1.192-0.471,2.263-1.228,3.039c-0.756,0.778-1.797,1.261-2.957,1.261
		c-1.158,0-2.2-0.482-2.956-1.261l0,0c-0.051-0.051-0.085-0.103-0.134-0.138v5.646c0,0.346-0.27,0.622-0.605,0.622
		s-0.605-0.276-0.605-0.622V88.566L57.22,88.566z M63.622,90.069c-0.538-0.553-1.294-0.898-2.116-0.898
		c-0.824,0-1.563,0.346-2.117,0.898l0,0c-0.537,0.552-0.874,1.33-0.874,2.175c0,0.848,0.337,1.623,0.874,2.176l0,0
		c0.537,0.554,1.293,0.898,2.117,0.898c0.822,0,1.563-0.345,2.116-0.898c0.538-0.553,0.874-1.328,0.874-2.176
		C64.496,91.399,64.16,90.621,63.622,90.069z"/>
	<path fill="#FFFFFF" d="M71.383,87.945c1.024,0,1.965,0.414,2.654,1.141c0.57,0.586,0.807,1.173,1.008,1.795
		c0.521,1.745-0.471,1.676-0.773,1.676h-5.56c0.051,0.413,0.151,0.793,0.27,1.138c0.219,0.536,0.537,0.934,0.939,1.21
		c0.42,0.276,0.958,0.414,1.578,0.414c0.673,0,1.463-0.189,2.336-0.569c0.303-0.139,0.655,0.017,0.791,0.327
		c0.133,0.312-0.019,0.674-0.319,0.812c-1.009,0.432-1.95,0.64-2.79,0.656c-0.856,0.018-1.613-0.188-2.233-0.604
		c-0.622-0.414-1.16-0.984-1.412-1.779c-0.57-1.743-0.588-3.471,0.857-5.075C69.401,88.343,70.358,87.945,71.383,87.945
		L71.383,87.945z M73.198,89.966c-0.487-0.483-1.126-0.777-1.814-0.777c-0.689,0-1.327,0.294-1.815,0.777
		c-0.353,0.362-0.638,0.812-0.789,1.329h5.225C73.819,90.777,73.551,90.328,73.198,89.966z"/>
	<path fill="#FFFFFF" d="M80.555,87.945c1.025,0,1.967,0.414,2.655,1.141c0.57,0.586,0.805,1.173,1.008,1.795
		c0.521,1.745-0.471,1.676-0.773,1.676h-5.561c0.05,0.413,0.151,0.793,0.269,1.138c0.219,0.536,0.537,0.934,0.941,1.21
		c0.42,0.276,0.958,0.414,1.579,0.414c0.672,0,1.462-0.189,2.336-0.569c0.301-0.139,0.654,0.017,0.788,0.327
		c0.135,0.312-0.017,0.674-0.319,0.812c-1.007,0.432-1.948,0.64-2.787,0.656c-0.857,0.018-1.614-0.188-2.234-0.604
		c-0.623-0.414-1.16-0.984-1.411-1.779c-0.571-1.743-0.589-3.471,0.856-5.075C78.573,88.343,79.531,87.945,80.555,87.945
		L80.555,87.945z M82.371,89.966c-0.488-0.483-1.127-0.777-1.815-0.777s-1.327,0.294-1.814,0.777
		c-0.353,0.362-0.638,0.812-0.789,1.329h5.225C82.992,90.777,82.722,90.328,82.371,89.966z"/>
	<path fill="#FFFFFF" d="M32.3,30.813h12.649c0.387-4.403,1.579-8.357,3.292-11.413c2.268-4.041,5.494-6.527,9.139-6.527
		c3.646,0,6.854,2.504,9.14,6.527c1.714,3.039,2.907,7.01,3.293,11.413h12.634c1.494,0,2.839,1.261,2.721,2.797l-2.538,36.379
		c-0.318,4.559-3.107,7.167-7.155,7.167H39.288c-4.502,0-6.888-3.23-7.157-7.167l-2.553-36.362
		C29.478,32.09,30.804,30.813,32.3,30.813L32.3,30.813z M48.108,30.813h18.513c-0.37-3.816-1.395-7.201-2.855-9.79
		c-1.681-3.021-3.966-4.904-6.385-4.904c-2.436,0-4.704,1.883-6.417,4.921C49.502,23.612,48.494,27.014,48.108,30.813z"/>
	<path fill="#F74514" d="M47.191,67.395c-0.588-0.415-0.739-1.226-0.336-1.829c0.403-0.604,1.193-0.761,1.78-0.346
		c0.37,0.259,0.757,0.518,1.176,0.777c2.957,1.847,5.678,2.763,7.947,2.763c2.049,0,3.713-0.795,4.77-2.401l0,0
		c0.068-0.12,0.136-0.189,0.152-0.241c0.303-0.5,0.521-1.036,0.672-1.554c0.303-1.071,0.252-2.175-0.168-3.178
		c-0.453-1.054-1.328-2.071-2.688-2.917l0,0c-0.908-0.57-2.033-1.071-3.394-1.451c-3.461-1.001-6.014-2.417-7.392-4.316
		c-1.513-2.089-1.629-4.61-0.017-7.667c1.076-2.02,3.276-3.28,6.064-3.505c2.402-0.19,5.293,0.397,8.231,1.934
		c0.64,0.329,0.891,1.122,0.555,1.779c-0.336,0.656-1.092,0.915-1.729,0.569c-2.504-1.312-4.89-1.813-6.872-1.657
		c-1.898,0.155-3.343,0.915-3.981,2.123c-1.076,2.021-1.058,3.608-0.185,4.817c1.007,1.399,3.108,2.486,6.031,3.333
		c1.579,0.467,2.923,1.054,4.03,1.745l0,0c1.832,1.139,3.059,2.571,3.714,4.126c0.672,1.605,0.756,3.297,0.303,4.955
		c-0.202,0.743-0.521,1.485-0.958,2.21c-0.102,0.156-0.167,0.276-0.219,0.363l0,0c-1.563,2.365-3.964,3.539-6.887,3.557
		c-2.739,0-5.93-1.037-9.291-3.143C48.082,68,47.645,67.723,47.191,67.395z"/>
</g>
</svg>
