<?xml version="1.0" encoding="utf-8"?>
<!-- Generator: Adobe Illustrator 16.0.0, SVG Export Plug-In . SVG Version: 6.00 Build 0)  -->
<!DOCTYPE svg PUBLIC "-//W3C//DTD SVG 1.1//EN" "http://www.w3.org/Graphics/SVG/1.1/DTD/svg11.dtd">
<svg version="1.1" id="Layer_1" xmlns="http://www.w3.org/2000/svg" xmlns:xlink="http://www.w3.org/1999/xlink" x="0px" y="0px"
	 width="113.39px" height="113.391px" viewBox="0 0 113.39 113.391" enable-background="new 0 0 113.39 113.391"
	 xml:space="preserve">
<g id="g1006" transform="matrix(0.26296827,0,0,0.26296827,-799.54693,61.582129)" display="none">
	<g id="g35" transform="matrix(12.509277,0,0,12.509277,438.06846,8.29825)" display="inline">
		<path id="path33" fill="#000083" d="M213.738,4.716h0.952V9.3h1.642v0.904h-2.59L213.738,4.716"/>
	</g>
	<g id="g41" transform="matrix(12.509277,0,0,12.509277,438.06846,8.29825)" display="inline">
		<path id="path39" fill="#000083" d="M218.538,6.092c0.505-0.006,0.983,0.224,1.293,0.622v-0.54h0.889v4.039h-0.889v-0.54
			c-0.31,0.398-0.788,0.628-1.293,0.622c-1.108,0-1.949-0.947-1.949-2.102C216.589,7.036,217.43,6.092,218.538,6.092 M218.699,6.901
			c-0.719,0-1.196,0.566-1.196,1.292c0,0.725,0.485,1.293,1.196,1.293c0.711,0,1.196-0.566,1.196-1.293
			C219.895,7.465,219.419,6.901,218.699,6.901"/>
	</g>
	<g id="g47" transform="matrix(12.509277,0,0,12.509277,438.06846,8.29825)" display="inline">
		<path id="path45" fill="#000083" d="M221.412,9.511l2.118-2.531h-2.086V6.173h3.234v0.711l-2.11,2.521h2.158v0.807h-3.314V9.511"
			/>
	</g>
	<g id="g53" transform="matrix(12.509277,0,0,12.509277,438.06846,8.29825)" display="inline">
		<path id="path51" fill="#000083" d="M226.986,6.092c0.505-0.006,0.983,0.224,1.293,0.622v-0.54h0.889v4.039h-0.889v-0.54
			c-0.31,0.398-0.788,0.628-1.293,0.622c-1.108,0-1.947-0.947-1.947-2.102C225.039,7.036,225.878,6.092,226.986,6.092
			 M227.147,6.901c-0.719,0-1.196,0.566-1.196,1.292c0,0.725,0.485,1.293,1.196,1.293s1.196-0.566,1.196-1.293
			C228.343,7.465,227.866,6.901,227.147,6.901"/>
	</g>
	<g id="g59" transform="matrix(12.509277,0,0,12.509277,438.06846,8.29825)" display="inline">
		<path id="path57" fill="#000083" d="M231.707,6.092c0.504-0.006,0.982,0.223,1.291,0.622V4.392h0.889v5.821h-0.889v-0.54
			c-0.309,0.398-0.787,0.628-1.291,0.622c-1.109,0-1.949-0.947-1.949-2.102C229.758,7.036,230.598,6.092,231.707,6.092
			 M231.868,6.901c-0.719,0-1.196,0.566-1.196,1.292c0,0.725,0.486,1.293,1.196,1.293c0.71,0,1.196-0.566,1.196-1.293
			C233.064,7.465,232.587,6.901,231.868,6.901"/>
	</g>
	<g id="g65" transform="matrix(12.509277,0,0,12.509277,438.06846,8.29825)" display="inline">
		<path id="path63" fill="#000083" d="M236.424,6.092c0.504-0.006,0.983,0.223,1.292,0.622v-0.54h0.887v4.039h-0.89v-0.54
			c-0.309,0.398-0.788,0.628-1.292,0.622c-1.108,0-1.949-0.947-1.949-2.102C234.472,7.036,235.317,6.092,236.424,6.092
			 M236.586,6.901c-0.719,0-1.196,0.566-1.196,1.292c0,0.725,0.486,1.293,1.196,1.293c0.71,0,1.196-0.566,1.196-1.293
			C237.783,7.465,237.306,6.901,236.586,6.901"/>
	</g>
</g>
<g>
	
		<linearGradient id="SVGID_1_" gradientUnits="userSpaceOnUse" x1="3439.4448" y1="-2625.1721" x2="3455.9824" y2="-4857.7432" gradientTransform="matrix(0.0886 0 0 -0.0886 -249.1277 -329.473)">
		<stop  offset="0.3379" style="stop-color:#5B8BEB"/>
		<stop  offset="0.7794" style="stop-color:#2742A2"/>
		<stop  offset="1" style="stop-color:#112283"/>
	</linearGradient>
	<rect x="0" y="0" display="none" fill="url(#SVGID_1_)" width="113.39" height="113.391"/>
	<linearGradient id="SVGID_2_" gradientUnits="userSpaceOnUse" x1="56.1031" y1="-94.0515" x2="57.5452" y2="100.6374">
		<stop  offset="0.3379" style="stop-color:#5B8BEB"/>
		<stop  offset="0.7794" style="stop-color:#2742A2"/>
		<stop  offset="1" style="stop-color:#112283"/>
	</linearGradient>
	<circle fill="url(#SVGID_2_)" cx="57.223" cy="57.168" r="56.223"/>
	<g id="g942" transform="matrix(1.3719271,0,0,1.3719271,169.4857,-38.493576)">
		<g id="g71" transform="matrix(3.3097462,0,0,3.3097462,-688.02908,65.088537)">
			
				<linearGradient id="path69_1_" gradientUnits="userSpaceOnUse" x1="242.5241" y1="6.9459" x2="426.2858" y2="5.5225" gradientTransform="matrix(2.2404 0 0 2.2404 -370.2781 -13.6466)">
				<stop  offset="9.999999e-008" style="stop-color:#FFB900"/>
				<stop  offset="0.3376" style="stop-color:#F38000"/>
				<stop  offset="0.5673" style="stop-color:#F83C72"/>
				<stop  offset="0.78" style="stop-color:#FC1CBE"/>
				<stop  offset="0.93" style="stop-color:#FE08ED"/>
				<stop  offset="1" style="stop-color:#FF00FF"/>
			</linearGradient>
			<path id="path69" fill="url(#path69_1_)" d="M183.096,10.042c-0.144,0.002-0.283-0.037-0.409-0.105
				c-1.066-0.618-8.962-5.569-9.262-5.719c-0.227-0.106-0.381-0.323-0.409-0.572v-6.947c-0.005-0.26,0.122-0.503,0.34-0.645
				l0.058-0.033c0.765-0.474,3.322-2.034,3.727-2.259c0.093-0.054,0.198-0.085,0.307-0.085c0.102,0.002,0.2,0.027,0.291,0.072
				c0,0,3.58,2.332,4.126,2.541c0.383,0.176,0.803,0.265,1.226,0.258c0.479,0.011,0.951-0.105,1.373-0.334
				c0.535-0.282,3.955-2.452,3.992-2.452c0.085-0.053,0.185-0.078,0.285-0.078c0.107,0,0.214,0.031,0.307,0.085
				c0.465,0.258,3.636,2.198,3.77,2.283c0.223,0.134,0.357,0.378,0.356,0.638v6.945c-0.025,0.249-0.18,0.466-0.408,0.572
				c-0.298,0.164-8.171,5.114-9.257,5.719C183.379,10,183.24,10.04,183.096,10.042"/>
		</g>
		<g id="g79" transform="matrix(3.3097462,0,0,3.3097462,-688.02908,65.088537)">
			
				<linearGradient id="path77_1_" gradientUnits="userSpaceOnUse" x1="245.0289" y1="9.8624" x2="432.3848" y2="-93.875" gradientTransform="matrix(2.2404 0 0 2.2404 -370.278 -13.6466)">
				<stop  offset="0" style="stop-color:#EE0A3F"/>
				<stop  offset="1" style="stop-color:#EE0A3F;stop-opacity:0"/>
			</linearGradient>
			<path id="path77" fill="url(#path77_1_)" d="M183.055,10.042h0.04c0.143,0.002,0.283-0.037,0.408-0.108
				c1.066-0.617,8.959-5.568,9.257-5.719c0.229-0.105,0.383-0.322,0.409-0.572v-6.945c0.002-0.118-0.026-0.234-0.079-0.34
				l-10.037,5.512v8.171"/>
		</g>
		<g id="g970" transform="matrix(-3.2744849,0,0,3.2744849,-467.18522,65.934126)">
			
				<linearGradient id="path968_1_" gradientUnits="userSpaceOnUse" x1="-94.4881" y1="7.4479" x2="-2.9795" y2="-66.2673" gradientTransform="matrix(2.1929 0 0 2.1929 93.9462 -13.968)">
				<stop  offset="0" style="stop-color:#ED6600"/>
				<stop  offset="1" style="stop-color:#F98200"/>
			</linearGradient>
			<path id="path968" fill="url(#path968_1_)" d="M-117.548,9.793h0.041c0.144,0.002,0.283-0.036,0.409-0.106
				c1.066-0.617,8.959-5.568,9.257-5.719c0.229-0.105,0.383-0.321,0.408-0.572V-3.55c0.002-0.118-0.025-0.234-0.078-0.34
				l-10.038,5.512V9.793"/>
		</g>
	</g>
	<g>
		<g id="g35_1_" transform="matrix(12.509277,0,0,12.509277,438.06846,8.29825)">
			<path id="path33_1_" fill="#FFFFFF" d="M-32.25,3.024h0.332v1.598h0.572v0.316h-0.903L-32.25,3.024"/>
		</g>
		<g id="g41_1_" transform="matrix(12.509277,0,0,12.509277,438.06846,8.29825)">
			<path id="path39_1_" fill="#FFFFFF" d="M-30.575,3.504c0.176-0.002,0.343,0.078,0.45,0.216V3.531h0.31V4.94h-0.31V4.751
				c-0.109,0.138-0.274,0.22-0.45,0.216c-0.387,0-0.679-0.33-0.679-0.734C-31.255,3.834-30.962,3.504-30.575,3.504 M-30.519,3.787
				c-0.251,0-0.418,0.198-0.418,0.45c0,0.252,0.169,0.45,0.418,0.45c0.249,0,0.418-0.198,0.418-0.45
				C-30.101,3.985-30.268,3.787-30.519,3.787"/>
		</g>
		<g id="g47_1_" transform="matrix(12.509277,0,0,12.509277,438.06846,8.29825)">
			<path id="path45_1_" fill="#FFFFFF" d="M-29.573,4.697l0.739-0.883h-0.728V3.533h1.128v0.249L-29.17,4.66h0.752v0.281h-1.155
				V4.697"/>
		</g>
	</g>
</g>
</svg>
